<svg width="80" height="80" viewBox="0 0 80 80" fill="none" xmlns="http://www.w3.org/2000/svg">
<path d="M23.2809 56.0796H11.5105C10.8633 56.0796 10.3386 56.6041 10.3386 57.2514C10.3386 57.8988 10.8633 58.4233 11.5105 58.4233H23.2809C23.9636 58.4233 24.5189 58.9791 24.5189 59.6622V71.477C24.5189 72.1601 23.9636 72.7159 23.2809 72.7159H7.67188C7.41578 72.7159 7.16672 72.7998 6.96282 72.9548L2.34375 76.4652V59.6622C2.34375 58.9791 2.89906 58.4233 3.58172 58.4233H6.11907C6.76625 58.4233 7.29094 57.8988 7.29094 57.2514C7.29094 56.6041 6.76625 56.0796 6.11907 56.0796H3.58172C1.60672 56.0796 0 57.6869 0 59.6622V78.8277C0 79.273 0.252344 79.6797 0.651094 79.8775C0.816094 79.9592 0.994375 79.9995 1.17172 79.9995C1.42328 79.9995 1.67313 79.9186 1.88094 79.7608L8.06657 75.0596H23.2809C25.2559 75.0596 26.8627 73.4524 26.8627 71.477V59.6622C26.8627 57.6869 25.2559 56.0796 23.2809 56.0796Z" fill="#CB0F4C"/>
<path d="M20.8507 62.825C20.8507 62.1776 20.326 61.6531 19.6788 61.6531H7.18384C6.53665 61.6531 6.01196 62.1776 6.01196 62.825C6.01196 63.4723 6.53665 63.9968 7.18384 63.9968H19.6788C20.326 63.9968 20.8507 63.4723 20.8507 62.825Z" fill="#CB0F4C"/>
<path d="M7.18384 66.9656C6.53665 66.9656 6.01196 67.4902 6.01196 68.1376C6.01196 68.785 6.53665 69.3096 7.18384 69.3096H18.1169C18.7641 69.3096 19.2888 68.785 19.2888 68.1376C19.2888 67.4902 18.7641 66.9656 18.1169 66.9656H7.18384Z" fill="#CB0F4C"/>
<path d="M76.4184 50.2263H73.8812C73.2339 50.2263 72.7093 50.7509 72.7093 51.3982C72.7093 52.0456 73.2339 52.5701 73.8812 52.5701H76.4184C77.1011 52.5701 77.6564 53.1259 77.6564 53.8091V70.6128L73.0373 67.1022C72.8334 66.9474 72.5843 66.8634 72.3282 66.8634H56.7192C56.0365 66.8634 55.4812 66.3076 55.4812 65.6245V53.8091C55.4812 53.1259 56.0365 52.5701 56.7192 52.5701H68.4895C69.1368 52.5701 69.6614 52.0456 69.6614 51.3982C69.6614 50.7509 69.1368 50.2263 68.4895 50.2263H56.7192C54.7442 50.2263 53.1375 51.8335 53.1375 53.8091V65.6245C53.1375 67.6 54.7442 69.2073 56.7192 69.2073H71.9336L78.1192 73.9085C78.327 74.0664 78.577 74.1472 78.8284 74.1472C79.0059 74.1472 79.184 74.1069 79.349 74.0252C79.7479 73.8274 80.0001 73.4206 80.0001 72.9753V53.8091C80 51.8337 78.3932 50.2263 76.4184 50.2263Z" fill="#CB0F4C"/>
<path d="M72.8163 55.8H60.3212C59.6738 55.8 59.1493 56.3246 59.1493 56.9719C59.1493 57.6193 59.6738 58.1438 60.3212 58.1438H72.8163C73.4636 58.1438 73.9882 57.6193 73.9882 56.9719C73.9882 56.3246 73.4636 55.8 72.8163 55.8Z" fill="#CB0F4C"/>
<path d="M72.8162 61.1125H61.8829C61.2356 61.1125 60.7111 61.637 60.7111 62.2843C60.7111 62.9316 61.2356 63.4561 61.8829 63.4561H72.8162C73.4635 63.4561 73.988 62.9316 73.988 62.2843C73.988 61.637 73.4635 61.1125 72.8162 61.1125Z" fill="#CB0F4C"/>
<path d="M63.1534 6.71875H74.4309C75.0783 6.71875 75.6028 6.19416 75.6028 5.54675C75.6028 4.89934 75.0783 4.37476 74.4309 4.37476H63.1534C62.5061 4.37476 61.9816 4.89934 61.9816 5.54675C61.9816 6.19416 62.5063 6.71875 63.1534 6.71875Z" fill="#CB0F4C"/>
<path d="M74.4309 9.84375H69.4114C68.764 9.84375 68.2395 10.3683 68.2395 11.0156C68.2395 11.663 68.764 12.1875 69.4114 12.1875H74.4309C75.0783 12.1875 75.6028 11.663 75.6028 11.0156C75.6028 10.3683 75.0781 9.84375 74.4309 9.84375Z" fill="#CB0F4C"/>
<path d="M5.56909 51.4424H16.2606C16.9078 51.4424 17.4325 50.9178 17.4325 50.2704C17.4325 49.623 16.9078 49.0984 16.2606 49.0984H5.56909C4.9219 49.0984 4.39722 49.623 4.39722 50.2704C4.39722 50.9178 4.9219 51.4424 5.56909 51.4424Z" fill="#CB0F4C"/>
<path d="M5.56911 45.9736H10.5889C11.236 45.9736 11.7607 45.449 11.7607 44.8016C11.7607 44.1542 11.236 43.6296 10.5889 43.6296H5.56911C4.92191 43.6296 4.39722 44.1542 4.39722 44.8016C4.39722 45.449 4.92191 45.9736 5.56911 45.9736Z" fill="#CB0F4C"/>
<path d="M30.2901 20.644C29.6919 20.3979 29.0069 20.6827 28.7601 21.2811L27.1094 25.2876L25.4586 21.2811C25.2776 20.842 24.8498 20.5555 24.375 20.5555C23.9002 20.5555 23.4723 20.842 23.2914 21.2811L21.6406 25.2876L19.9898 21.2811C19.7431 20.6826 19.0581 20.3977 18.4598 20.644C17.8614 20.8906 17.5763 21.5756 17.8228 22.1741L20.5572 28.8101C20.7381 29.2492 21.1659 29.5356 21.6408 29.5356C22.1156 29.5356 22.5434 29.2492 22.7244 28.8101L24.375 24.8036L26.0258 28.8101C26.2067 29.2492 26.6345 29.5356 27.1094 29.5356C27.5842 29.5356 28.012 29.2492 28.193 28.8101L30.9273 22.1741C31.1739 21.5756 30.8886 20.8906 30.2901 20.644Z" fill="#CB0F4C"/>
<path d="M33.4478 22.1741L36.1821 28.8101C36.3631 29.2492 36.7909 29.5356 37.2657 29.5356C37.7406 29.5356 38.1682 29.2492 38.3493 28.8101L40 24.8036L41.6507 28.8101C41.8317 29.2492 42.2595 29.5356 42.7343 29.5356C43.2092 29.5356 43.6368 29.2492 43.8179 28.8101L46.5523 22.1741C46.7989 21.5756 46.5137 20.8906 45.9153 20.644C45.317 20.3977 44.632 20.6826 44.3853 21.2811L42.7345 25.2876L41.0837 21.2811C40.9028 20.842 40.475 20.5555 40.0001 20.5555C39.5253 20.5555 39.0976 20.842 38.9165 21.2811L37.2656 25.2877L35.6146 21.2811C35.3681 20.6826 34.6832 20.3977 34.0846 20.644C33.4864 20.8906 33.201 21.5758 33.4478 22.1741Z" fill="#CB0F4C"/>
<path d="M52.8906 29.5356C53.3653 29.5356 53.7931 29.2492 53.9742 28.8101L55.625 24.8036L57.2757 28.8101C57.4567 29.2492 57.8845 29.5356 58.3593 29.5356C58.8342 29.5356 59.2618 29.2492 59.4429 28.8101L62.1773 22.1741C62.4239 21.5756 62.1387 20.8906 61.5403 20.644C60.942 20.3977 60.257 20.6826 60.0103 21.2811L58.3595 25.2876L56.7087 21.2811C56.5278 20.842 56.1 20.5555 55.6251 20.5555C55.1503 20.5555 54.7226 20.842 54.5415 21.2811L52.8908 25.2876L51.24 21.2811C50.9934 20.6826 50.3083 20.3979 49.71 20.644C49.1115 20.8906 48.8264 21.5756 49.0729 22.1741L51.8073 28.8101C51.9881 29.2492 52.4159 29.5356 52.8906 29.5356Z" fill="#CB0F4C"/>
<path d="M14.2211 34.8118H65.8167C67.7461 34.8118 69.3158 33.242 69.3158 31.3124V18.7787C69.3158 16.8493 67.7461 15.2795 65.8167 15.2795H35.3367C34.6895 15.2795 34.1649 15.8041 34.1649 16.4515C34.1649 17.0988 34.6895 17.6234 35.3367 17.6234H65.8167C66.4538 17.6234 66.972 18.1415 66.972 18.7787V31.3124C66.972 31.9495 66.4539 32.4679 65.8167 32.4679H14.2211C13.5841 32.4679 13.0658 31.9496 13.0658 31.3124V18.7787C13.0658 18.1417 13.5841 17.6234 14.2211 17.6234H29.8438C30.491 17.6234 31.0156 17.0988 31.0156 16.4515C31.0156 15.8041 30.491 15.2795 29.8438 15.2795H14.2211C12.2917 15.2795 10.722 16.8493 10.722 18.7787V31.3124C10.722 33.242 12.2917 34.8118 14.2211 34.8118Z" fill="#CB0F4C"/>
<path d="M19.6154 12.575C20.1496 12.9402 20.8789 12.8033 21.2441 12.2686C25.4916 6.05393 32.5034 2.34364 40.0001 2.34364C47.4968 2.34364 54.5084 6.05393 58.7559 12.2685C58.9829 12.6007 59.3506 12.7794 59.7245 12.7794C59.9523 12.7794 60.1825 12.713 60.3847 12.5749C60.919 12.2096 61.0562 11.4804 60.6911 10.9462C56.0064 4.09215 48.2715 0 40.0001 0C31.7287 0 23.9936 4.09199 19.3091 10.9464C18.9439 11.4805 19.081 12.2097 19.6154 12.575Z" fill="#CB0F4C"/>
<path d="M52.8456 12.4292C53.0752 12.6628 53.3783 12.7798 53.6817 12.7798C53.9781 12.7798 54.2749 12.6679 54.503 12.444C54.9647 11.9905 54.9713 11.2485 54.5178 10.7868C50.6542 6.85356 45.4984 4.68726 40 4.68726C34.5016 4.68726 29.3456 6.8534 25.4822 10.7866C25.0287 11.2483 25.0353 11.9904 25.497 12.4438C25.9589 12.8974 26.7009 12.8906 27.1542 12.429C30.5736 8.94813 35.1356 7.03106 40 7.03106C44.8644 7.03106 49.4266 8.94813 52.8456 12.4292Z" fill="#CB0F4C"/>
<path d="M52.5944 37.9127C49.2042 41.2318 44.7314 43.0597 40 43.0597C35.2686 43.0597 30.7958 41.2318 27.4057 37.9127C26.9432 37.4602 26.2013 37.4678 25.7485 37.9302C25.2958 38.3927 25.3036 39.1348 25.7661 39.5875C29.5969 43.338 34.6519 45.4036 40 45.4036C45.3481 45.4036 50.4031 43.338 54.2341 39.5875C54.6964 39.1348 54.7044 38.3927 54.2516 37.9302C53.7991 37.4682 53.0573 37.4594 52.5944 37.9127Z" fill="#CB0F4C"/>
<path d="M60.4966 39.4243C60.8691 38.8949 60.7418 38.164 60.2126 37.7917C59.6833 37.4191 58.9524 37.5467 58.5799 38.0757C54.7565 43.51 48.7972 46.9955 42.2297 47.6383C41.6295 47.6969 41.1719 48.2014 41.1719 48.8046V58.6328C41.1719 59.2802 41.6964 59.8047 42.3438 59.8047C42.9911 59.8047 43.5156 59.2802 43.5156 58.6328V49.8444C50.3424 48.8805 56.4863 45.1244 60.4966 39.4243Z" fill="#CB0F4C"/>
<path d="M42.3439 62.8274C41.6965 62.8274 41.172 63.3519 41.172 63.9993V76.4841C41.172 77.1304 40.6464 77.656 40.0001 77.656C39.3539 77.656 38.8282 77.1304 38.8282 76.4841V48.8044C38.8282 48.2015 38.3706 47.6968 37.7704 47.6382C31.2029 46.9954 25.2435 43.5099 21.4203 38.0757C21.0479 37.5461 20.3168 37.4189 19.7876 37.7916C19.2582 38.1639 19.131 38.895 19.5035 39.4243C23.5138 45.1243 29.6578 48.8805 36.4845 49.8443V76.4841C36.4845 78.4226 38.0617 79.9998 40.0001 79.9998C41.9386 79.9998 43.5157 78.4226 43.5157 76.4841V63.9993C43.5157 63.3519 42.9912 62.8274 42.3439 62.8274Z" fill="#CB0F4C"/>
</svg>
