<svg width="80" height="80" viewBox="0 0 80 80" fill="none" xmlns="http://www.w3.org/2000/svg">
<path d="M71.6589 8.48096H64.99C64.3428 8.48096 63.8181 9.00549 63.8181 9.65283C63.8181 10.3002 64.3428 10.8247 64.99 10.8247H71.6589C74.9659 10.8247 77.6562 13.522 77.6562 16.8373V61.5936C77.6562 64.909 74.9657 67.6062 71.6589 67.6062H8.34109C5.03406 67.6065 2.34375 64.9092 2.34375 61.5937V53.2977C2.34375 52.6503 1.81906 52.1258 1.17187 52.1258C0.524687 52.1258 0 52.6503 0 53.2977V61.5937C0 66.2015 3.74172 69.9501 8.34109 69.9501H32.1322L29.7725 77.656H24.5753C23.9281 77.656 23.4034 78.1805 23.4034 78.8279C23.4034 79.4752 23.9281 79.9998 24.5753 79.9998H55.4243C56.0715 79.9998 56.5962 79.4752 56.5962 78.8279C56.5962 78.1805 56.0715 77.656 55.4243 77.656H50.2272L47.8676 69.9503H71.6585C76.2579 69.9503 79.9996 66.2017 79.9996 61.5939V16.8375C79.9999 12.2297 76.2581 8.48096 71.6589 8.48096ZM32.2237 77.656L34.5834 69.9503H45.4167L47.7762 77.656H32.2237Z" fill="#CB0F4C"/>
<path d="M1.17187 49.0188C1.81906 49.0188 2.34374 48.4943 2.34374 47.8469V16.8374C2.34374 13.5219 5.03405 10.8247 8.34107 10.8247H11.744C12.3912 10.8247 12.9159 10.3002 12.9159 9.65283C12.9159 9.00549 12.3912 8.48096 11.744 8.48096H8.34107C3.74171 8.4808 0 12.2296 0 16.8374V47.8469C0 48.4941 0.524686 49.0188 1.17187 49.0188Z" fill="#CB0F4C"/>
<path d="M75.3243 16.643C75.3243 14.5969 73.6622 12.9324 71.619 12.9324H67.4482C66.8011 12.9324 66.2764 13.4569 66.2764 14.1043C66.2764 14.7516 66.8011 15.2761 67.4482 15.2761H71.619C72.3698 15.2761 72.9806 15.8894 72.9806 16.643V39.6218C72.9806 40.2692 73.5053 40.7937 74.1525 40.7937C74.7997 40.7937 75.3243 40.2692 75.3243 39.6218V16.643Z" fill="#CB0F4C"/>
<path d="M75.3243 56.9464V45.1386C75.3243 44.4913 74.7997 43.9668 74.1525 43.9668C73.5053 43.9668 72.9806 44.4913 72.9806 45.1386V56.9464C72.9806 57.7002 72.3698 58.3135 71.619 58.3135H8.38085C7.63007 58.3135 7.01929 57.7002 7.01929 56.9464V16.643C7.01929 15.8894 7.63007 15.2761 8.38085 15.2761H10.5879C11.2351 15.2761 11.7598 14.7516 11.7598 14.1042C11.7598 13.4569 11.2351 12.9324 10.5879 12.9324H8.38085C6.33773 12.9324 4.67554 14.5969 4.67554 16.643V56.9464C4.67554 58.9927 6.33773 60.6572 8.38085 60.6572H71.619C73.6621 60.6572 75.3243 58.9927 75.3243 56.9464Z" fill="#CB0F4C"/>
<path d="M10.0087 62.9648C9.36148 62.9648 8.83679 63.4894 8.83679 64.1368C8.83679 64.7843 9.36148 65.3088 10.0087 65.3088H14.796C15.4432 65.3088 15.9679 64.7843 15.9679 64.1368C15.9679 63.4894 15.4432 62.9648 14.796 62.9648H10.0087Z" fill="#CB0F4C"/>
<path d="M19.3837 62.9648C18.7365 62.9648 18.2118 63.4894 18.2118 64.1368C18.2118 64.7843 18.7365 65.3088 19.3837 65.3088H24.171C24.8182 65.3088 25.3429 64.7843 25.3429 64.1368C25.3429 63.4894 24.8182 62.9648 24.171 62.9648H19.3837Z" fill="#CB0F4C"/>
<path d="M40.0675 53.7253C44.828 53.7253 49.5058 52.4655 53.5955 50.0819C57.5633 47.7695 60.8955 44.4582 63.2319 40.5064C63.5613 39.9492 63.3766 39.2306 62.8195 38.9012C62.2622 38.572 61.5438 38.7566 61.2144 39.3136C59.7844 41.7323 57.9458 43.8882 55.7978 45.6829C54.8342 45.2493 53.8339 44.8587 52.8019 44.5123C55.302 39.9226 56.7366 34.1589 56.8991 28.0349H64.5817C64.4738 30.3312 64.0481 32.5847 63.3124 34.7502C63.1041 35.363 63.432 36.0286 64.0448 36.2369C64.1698 36.2792 64.2969 36.2994 64.422 36.2994C64.91 36.2994 65.3656 35.9921 65.5314 35.5042C66.4748 32.7283 66.9531 29.821 66.9531 26.8631C66.953 12.0505 54.8922 0 40.0675 0C35.7813 0 31.6842 0.978117 27.89 2.90716C24.5533 4.60371 21.5638 7.02119 19.1938 9.93164C18.8238 9.81508 18.4302 9.75226 18.022 9.75226C15.8674 9.75226 14.1145 11.5041 14.1145 13.6574C14.1145 14.7447 14.5616 15.7296 15.2814 16.4383C13.8878 19.7372 13.1819 23.2393 13.1819 26.8626C13.1819 41.6748 25.2427 53.7253 40.0675 53.7253ZM15.5534 28.0346H23.2359C23.3984 34.1586 24.833 39.9223 27.3331 44.512C26.3049 44.8571 25.3081 45.2462 24.3478 45.6779C19.2394 41.4108 15.8883 35.1103 15.5534 28.0346ZM26.5247 47.3016C27.193 47.0366 27.8784 46.7926 28.5794 46.5699C29.3764 47.7545 30.2349 48.8015 31.1438 49.704C29.5122 49.0655 27.9653 48.2576 26.5247 47.3016ZM38.8956 51.3011C35.9995 50.9027 33.2555 49.0327 30.9753 45.906C33.4799 45.309 36.1427 44.9654 38.8956 44.8895V51.3011ZM38.8956 42.545C35.6666 42.6295 32.5469 43.0634 29.6342 43.8264C27.1675 39.51 25.7461 33.9677 25.5806 28.0346H38.8958V31.2476C37.3119 31.7461 36.16 33.2279 36.16 34.9733C36.16 36.7186 37.3119 38.2003 38.8958 38.6989V42.545H38.8956ZM41.2394 51.3011V44.8895C43.9924 44.9654 46.6552 45.309 49.1597 45.906C46.8794 49.0327 44.1355 50.9027 41.2394 51.3011ZM53.6214 47.306C53.227 47.5677 52.8249 47.8182 52.4152 48.0569C51.3144 48.6985 50.1669 49.2508 48.9844 49.7107C49.8958 48.8066 50.7566 47.7573 51.5555 46.5698C52.2603 46.7938 52.9495 47.0395 53.6214 47.306ZM54.9452 20.1117C54.0828 20.1117 53.3814 19.4112 53.3814 18.5503C53.3814 17.6894 54.083 16.9889 54.9452 16.9889C55.8075 16.9889 56.5091 17.6894 56.5091 18.5503C56.5091 19.4112 55.8075 20.1117 54.9452 20.1117ZM64.5814 25.6909H56.8988C56.8661 24.4717 56.7825 23.2582 56.6489 22.0644C57.9524 21.4306 58.8528 20.0936 58.8528 18.5503C58.8528 16.4464 57.1795 14.7258 55.093 14.648C54.4689 12.6852 53.6988 10.8615 52.8023 9.21336C53.8305 8.86821 54.827 8.47931 55.7872 8.04775C60.8955 12.3146 64.2466 18.615 64.5814 25.6909ZM53.6102 6.4237C52.9419 6.68869 52.2566 6.9326 51.5556 7.15541C50.8933 6.17307 50.1794 5.27418 49.4197 4.46918C49.2734 4.31418 49.1258 4.16309 48.9769 4.01575C50.6138 4.65496 52.1655 5.46495 53.6102 6.4237ZM41.2394 2.42623C44.1516 2.83654 46.9083 4.76121 49.153 7.82087C46.6503 8.41696 43.9899 8.75993 41.2394 8.83587V2.42623ZM41.2394 11.1804C44.4677 11.0958 47.5866 10.6621 50.4986 9.89961C51.4059 11.4863 52.1942 13.2871 52.8305 15.2677C51.7525 15.9636 51.0377 17.175 51.0377 18.5502C51.0377 20.4939 52.4661 22.1104 54.3289 22.4067C54.4477 23.4882 54.523 24.5865 54.5542 25.6907H41.2394V11.1804ZM41.2394 28.0346H54.5544C54.3888 33.9675 52.9675 39.5098 50.5008 43.8264C47.5881 43.0636 44.4684 42.6295 41.2394 42.545V38.6989C42.8233 38.2003 43.975 36.7186 43.975 34.9733C43.975 33.2279 42.8231 31.7463 41.2394 31.2476V28.0346ZM40.0675 33.4119C40.9299 33.4119 41.6313 34.1124 41.6313 34.9733C41.6313 35.8342 40.9297 36.5345 40.0675 36.5345C39.2052 36.5345 38.5036 35.8342 38.5036 34.9733C38.5036 34.1124 39.2052 33.4119 40.0675 33.4119ZM38.8956 2.42467V8.83587C36.1384 8.75977 33.4719 8.41524 30.9641 7.81665C33.2034 4.75121 35.9588 2.83091 38.8956 2.42467ZM28.9522 4.99652C29.6861 4.6234 30.4324 4.28934 31.1903 3.99434C30.2591 4.90918 29.3853 5.96776 28.582 7.15635C27.8769 6.93244 27.1874 6.68682 26.5153 6.4201C27.3002 5.89855 28.1141 5.42261 28.9522 4.99652ZM18.0219 12.096C18.8842 12.096 19.5858 12.7965 19.5858 13.6574C19.5858 14.5183 18.8842 15.2188 18.0219 15.2188C17.1595 15.2188 16.4581 14.5183 16.4581 13.6574C16.4581 12.7965 17.1597 12.096 18.0219 12.096ZM17.3741 17.5089C17.5849 17.5442 17.8013 17.5627 18.0219 17.5627C20.1766 17.5627 21.9295 15.8108 21.9295 13.6575C21.9295 12.7633 21.6272 11.9385 21.1194 11.2794C22.0892 10.1052 23.1699 9.02071 24.3394 8.044C25.3024 8.47727 26.302 8.86743 27.3333 9.21367C26.1908 11.3108 25.243 13.7138 24.542 16.3674C24.3767 16.9931 24.7502 17.6342 25.3758 17.7995C25.4761 17.8261 25.5767 17.8388 25.6758 17.8388C26.1949 17.8388 26.6692 17.4913 26.8081 16.9658C27.5111 14.3038 28.4709 11.9241 29.6241 9.89664C32.5397 10.6612 35.6627 11.096 38.8953 11.1805V25.691H25.5805C25.615 24.4735 25.703 23.2623 25.8433 22.0764C25.9194 21.4337 25.4602 20.8509 24.8174 20.7748C24.1761 20.7005 23.592 21.1583 23.5158 21.8008C23.3645 23.0773 23.2708 24.3814 23.2358 25.6909H15.5527C15.6844 22.8575 16.2952 20.1141 17.3741 17.5089Z" fill="#CB0F4C"/>
<path d="M17.0501 46.6697H12.0281C11.3809 46.6697 10.8562 47.1943 10.8562 47.8417C10.8562 48.4891 11.3809 49.0137 12.0281 49.0137H17.0501C17.6972 49.0137 18.2219 48.4891 18.2219 47.8417C18.2219 47.1943 17.6972 46.6697 17.0501 46.6697Z" fill="#CB0F4C"/>
<path d="M10.8562 53.3105C10.8562 53.9579 11.3809 54.4824 12.0281 54.4824H20.1703C20.8175 54.4824 21.3422 53.9579 21.3422 53.3105C21.3422 52.6632 20.8175 52.1387 20.1703 52.1387H12.0281C11.3809 52.1387 10.8562 52.6632 10.8562 53.3105Z" fill="#CB0F4C"/>
</svg>
